<svg width="500" height="268" viewBox="0 0 500 268" fill="none" xmlns="http://www.w3.org/2000/svg">
<path d="M161.071 54.0945C148.858 54.0945 136.724 54.4916 124.669 55.286C112.615 55.9215 100.56 56.2392 88.5056 56.2392C90.5675 56.3981 92.5502 56.5569 94.4535 56.7158C96.5155 56.7158 98.6568 56.7158 100.877 56.7158C108.173 56.7158 115.39 56.6364 122.528 56.4775C129.824 56.1598 137.12 56.0009 144.416 56.0009H151.554C153.933 56.0009 156.392 56.0803 158.929 56.2392C156.709 57.669 154.33 58.7016 151.792 59.3371C149.413 59.9726 146.954 60.4492 144.416 60.7669C142.037 60.9258 139.499 61.0052 136.803 61.0052C134.265 61.0052 131.727 61.0846 129.19 61.2435L127.048 58.3839C123.4 59.0194 119.752 59.4165 116.104 59.5754C112.456 59.7343 108.808 59.8137 105.16 59.8137L83.9851 59.5754L84.223 61.7201L123.955 61.4818C110.473 62.2762 97.2292 62.7528 84.223 62.9116C84.3817 64.9769 84.5403 67.0422 84.6989 69.1075C84.8575 71.0139 85.0954 72.9997 85.4126 75.065L82.5576 75.7799C83.8265 81.1814 84.6989 87.139 85.1747 93.6525C85.8092 100.007 86.3643 106.521 86.8401 113.193C87.316 119.866 87.9504 126.459 88.7435 132.972C89.6952 139.327 91.0434 145.126 92.7881 150.368L93.5019 149.653C92.5502 144.252 91.6778 138.453 90.8848 132.257C90.0917 125.903 89.2986 119.469 88.5056 112.955C87.8711 106.283 87.2367 99.769 86.6022 93.4142C86.1264 87.3773 85.7299 81.7375 85.4126 76.4948C86.0471 84.9148 86.9988 93.732 88.2677 102.946C89.6952 112.32 91.202 121.852 92.7881 131.543C94.3742 141.075 95.881 150.527 97.3086 159.9C98.8947 169.274 100.322 178.25 101.591 186.828C101.908 189.529 102.305 192.468 102.781 195.646C103.257 198.664 103.494 201.762 103.494 204.939V207.799C103.494 208.911 103.336 209.944 103.019 210.897C101.908 210.897 100.798 211.056 99.6877 211.374C98.7361 211.85 97.7051 212.088 96.5948 212.088C94.8501 212.088 93.7398 211.215 93.2639 209.467C92.9467 207.72 92.7881 206.21 92.7881 204.939H90.6468C90.4882 205.893 90.171 207.084 89.6952 208.514C89.3779 210.103 88.8228 211.612 88.0297 213.042C87.3953 214.471 86.5229 215.663 85.4126 216.616C84.461 217.569 83.3507 218.046 82.0818 218.046C80.4957 218.046 79.0682 216.934 77.7993 214.71C76.5304 212.486 75.3408 209.626 74.2305 206.131C73.2788 202.636 72.4064 198.823 71.6134 194.692C70.9789 190.403 70.3445 186.352 69.71 182.539C69.2342 178.567 68.7584 174.993 68.2825 171.815C67.9653 168.638 67.6481 166.335 67.3309 164.905C65.7447 158.232 64.2379 150.924 62.8104 142.981C61.5415 135.038 60.4312 127.015 59.4796 118.913C58.5279 110.81 57.7348 102.787 57.1004 94.8441C56.6245 86.7418 56.3866 79.1956 56.3866 72.2054C56.3866 71.0933 56.3866 70.0607 56.3866 69.1075C56.5452 67.9954 56.6245 66.8833 56.6245 65.7713V64.3414C56.6245 63.706 56.5452 63.0705 56.3866 62.435C47.0285 62.2762 38.1462 61.879 29.7398 61.2435C21.3333 60.4492 11.9752 59.4165 1.66543 58.1456C1.82404 57.1924 1.90335 56.1597 1.90335 55.0477C1.90335 53.9356 1.98265 52.903 2.14126 51.9498C2.45849 50.9966 2.85502 50.2022 3.33086 49.5667C3.9653 48.7724 4.99628 48.3752 6.42379 48.3752C7.37546 48.3752 8.48575 48.5341 9.75465 48.8518L10.4684 46.7071C8.56506 45.9128 6.34449 44.6418 3.80669 42.8943C1.2689 41.1467 0 39.0815 0 36.6984C0 35.2686 0.555142 34.236 1.66543 33.6005C2.77571 32.8062 4.12392 32.2502 5.71004 31.9324C7.29616 31.6147 8.88228 31.4558 10.4684 31.4558C12.0545 31.2969 13.2441 31.2175 14.0372 31.2175C19.7472 31.2175 25.3779 31.5352 30.9294 32.1707C36.6394 32.8062 42.3494 33.1239 48.0595 33.1239C62.4932 33.1239 76.8476 33.3622 91.1227 33.8388C105.398 34.1566 119.752 34.3154 134.186 34.3154C137.041 34.3154 139.817 33.9183 142.513 33.1239C145.368 32.3296 148.223 31.9324 151.078 31.9324C152.188 31.9324 153.14 32.2502 153.933 32.8856C154.885 33.5211 155.361 34.4743 155.361 35.7452C151.078 36.5396 146.716 37.1751 142.275 37.6517C138.31 37.9694 134.265 38.2871 130.141 38.6049C134.265 38.6049 138.31 38.446 142.275 38.1283C146.558 37.8105 150.919 37.4928 155.361 37.1751V41.7028L159.643 40.9879C160.912 41.3056 162.102 41.9411 163.212 42.8943C164.322 43.6886 164.877 44.8801 164.877 46.4688C164.877 47.8986 164.481 49.3284 163.688 50.7582C162.895 52.0292 162.022 53.1413 161.071 54.0945ZM77.5613 62.9116C77.8786 67.5188 78.2751 72.6026 78.7509 78.1629C79.3854 83.7233 80.0198 89.3631 80.6543 95.0824C81.2887 100.802 81.9232 106.441 82.5576 112.002C83.3507 117.403 84.0644 122.408 84.6989 127.015C84.2231 122.566 83.6679 117.562 83.0335 112.002C82.5576 106.441 82.0818 100.802 81.606 95.0824C81.1301 89.3631 80.6543 83.7233 80.1784 78.1629C79.8612 72.6026 79.7026 67.5188 79.7026 62.9116H77.5613ZM120.862 38.6049H107.777C103.812 38.6049 99.8464 38.5254 95.881 38.3666C97.7844 38.6843 99.6084 39.002 101.353 39.3198C103.574 39.7964 106.032 40.0347 108.729 40.0347C110.632 40.0347 112.615 39.8758 114.677 39.5581C116.897 39.2403 118.959 38.9226 120.862 38.6049ZM78.513 61.7201H79.7026V59.5754H78.513V61.7201Z" fill="#D35D5D"/>
<path d="M177.933 192.309C178.568 187.861 179.123 182.698 179.599 176.82C180.233 170.783 180.788 164.746 181.264 158.709C181.74 152.672 182.216 146.794 182.691 141.075C183.167 135.196 183.643 130.113 184.119 125.823C183.326 130.113 182.612 135.038 181.978 140.598C181.343 146.158 180.709 151.878 180.074 157.756C179.44 163.634 178.805 169.512 178.171 175.39C177.537 181.109 176.981 186.272 176.506 190.88C174.126 189.291 172.937 187.146 172.937 184.445C172.937 181.268 173.016 178.647 173.175 176.582C173.333 174.357 173.571 171.815 173.888 168.956L176.506 166.573C176.347 165.779 176.268 165.064 176.268 164.428V162.045C176.268 158.391 176.664 154.261 177.457 149.653C178.25 144.887 179.123 140.121 180.074 135.355C181.185 130.43 182.136 125.744 182.929 121.296C183.722 116.688 184.119 112.717 184.119 109.38L181.264 108.666C180.947 112.478 180.471 116.847 179.836 121.772C179.202 126.538 178.488 131.543 177.695 136.785C177.061 141.869 176.426 146.953 175.792 152.036C175.475 154.737 175.157 157.279 174.84 159.662C175.157 155.214 175.554 150.448 176.03 145.364C176.823 138.056 177.616 130.828 178.409 123.679C179.361 116.371 180.233 109.222 181.026 102.231C181.819 95.2412 182.612 88.8071 183.405 82.929C183.405 80.546 183.96 78.0041 185.071 75.3033C186.34 72.4437 187.212 69.5046 187.688 66.4862C188.639 66.8039 189.432 66.9628 190.067 66.9628H191.732C193.318 66.9628 194.349 67.3599 194.825 68.1543C195.301 68.7897 195.539 69.7429 195.539 71.0139V72.2054L197.68 72.9203C198.949 70.5373 200.456 68.6309 202.201 67.2011C203.945 65.7713 205.69 65.0563 207.435 65.0563C211.242 65.0563 213.145 69.1075 213.145 77.2097C213.145 81.4992 212.669 86.1063 211.717 91.0312C210.924 95.7973 210.528 100.484 210.528 105.091V108.189C210.528 113.273 209.973 118.833 208.862 124.87C207.752 130.748 206.483 136.785 205.056 142.981C203.787 149.018 202.597 154.896 201.487 160.615C200.377 166.335 199.822 171.577 199.822 176.343C199.822 177.455 199.901 178.647 200.059 179.918C200.218 181.189 200.297 182.38 200.297 183.492C200.297 185.875 199.822 187.385 198.87 188.02C198.077 188.497 197.046 188.735 195.777 188.735C195.777 186.67 195.698 184.128 195.539 181.109C195.38 178.091 195.301 175.39 195.301 173.007C194.984 174.755 194.825 177.138 194.825 180.156C194.825 183.175 194.667 186.034 194.349 188.735H190.781V191.595C189.353 194.136 187.45 195.407 185.071 195.407C183.96 195.407 182.691 195.09 181.264 194.454C179.836 193.819 178.726 193.104 177.933 192.309ZM226.944 9.29376C224.248 10.8824 221.789 12.9477 219.569 15.4896C217.348 18.0315 215.048 20.4939 212.669 22.877C214.097 21.9237 215.366 20.8911 216.476 19.779C217.586 18.667 218.696 17.5549 219.807 16.4428C221.076 15.3307 222.344 14.2187 223.613 13.1066C225.041 11.9945 226.627 10.9619 228.372 10.0087C228.848 10.6441 229.244 11.2002 229.561 11.6768C230.037 12.1534 230.275 12.63 230.275 13.1066L224.803 18.5875C224.803 18.2698 224.486 17.9521 223.851 17.6343C223.375 17.3166 222.979 17.1577 222.662 17.1577C222.186 18.7464 221.393 20.0173 220.283 20.9705C219.172 21.9237 218.062 22.7975 216.952 23.5919C215.841 24.3862 214.731 25.26 213.621 26.2132C212.511 27.1664 211.717 28.4373 211.242 30.026V30.5026C211.242 30.6615 211.48 30.7409 211.955 30.7409L223.851 19.5407L219.331 24.0685C217.11 26.2926 214.731 28.5962 212.193 30.9792C209.814 33.2034 207.514 35.1892 205.294 36.9367C203.232 38.6843 201.963 39.5581 201.487 39.5581L201.249 39.3198C200.139 39.002 198.949 38.8432 197.68 38.8432C196.57 38.8432 195.38 38.7637 194.112 38.6049C194.112 37.3339 193.874 35.9835 193.398 34.5537C193.081 33.1239 192.922 32.0118 192.922 31.2175C192.922 30.4232 193.318 30.026 194.112 30.026C194.112 29.5494 193.794 28.8345 193.16 27.8813C192.684 26.7692 192.129 25.5777 191.494 24.3068C190.86 22.877 190.226 21.4471 189.591 20.0173C189.115 18.4287 188.877 16.84 188.877 15.2513C188.877 13.6626 189.512 12.1534 190.781 10.7236C192.208 9.13489 193.794 7.78451 195.539 6.67245C197.442 5.56037 199.266 4.60716 201.011 3.81282C202.756 3.01848 204.025 2.46245 204.818 2.14472C205.452 2.14472 205.69 1.82698 205.532 1.19151C205.373 0.397169 205.611 0 206.245 0L210.528 1.42981C210.211 2.22414 209.18 3.57452 207.435 5.48094C205.849 7.22848 204.659 8.49942 203.866 9.29376C204.976 8.49942 206.245 7.30791 207.673 5.71924C209.259 4.13056 210.449 2.93905 211.242 2.14472C212.035 2.46245 212.748 2.78018 213.383 3.09792C214.017 3.41566 214.493 3.57452 214.81 3.57452L215.524 2.85961C216.634 2.85961 217.824 3.09791 219.093 3.57452C220.52 4.05113 221.789 4.60717 222.9 5.24264C224.01 5.8781 224.962 6.593 225.755 7.38734C226.548 8.18169 226.944 8.81716 226.944 9.29376ZM174.364 165.381C174.523 163.634 174.682 161.886 174.84 160.139C174.682 162.045 174.523 163.793 174.364 165.381Z" fill="#D3B35D"/>
<path d="M254.052 189.45C254.052 188.655 254.29 187.702 254.766 186.59C255.242 185.478 255.48 184.287 255.48 183.016C255.955 179.203 256.273 176.502 256.431 174.913C256.59 173.166 256.669 171.657 256.669 170.386C256.669 163.713 256.431 156.564 255.955 148.939C255.638 141.154 255.242 133.687 254.766 126.538C254.766 124.314 254.686 121.693 254.528 118.674C254.528 115.656 254.369 113.273 254.052 111.525C254.528 105.965 254.924 100.484 255.242 95.0824C255.559 89.6809 255.717 84.1999 255.717 78.6395V72.682C255.717 70.6167 255.638 68.5514 255.48 66.4862C255.955 66.9628 256.431 67.2011 256.907 67.2011C257.542 67.2011 258.176 66.9628 258.81 66.4862C259.603 66.0096 260.317 65.7713 260.952 65.7713C262.062 65.7713 262.934 66.9628 263.569 69.3458C264.362 71.7288 264.758 76.9714 264.758 85.0737H266.9C267.693 76.1771 268.882 69.1075 270.468 63.8648C272.213 58.6222 273.958 56.0009 275.703 56.0009C276.496 56.0009 277.765 57.7484 279.509 61.2435C281.254 64.5797 282.126 69.9018 282.126 77.2097L284.743 72.9203C286.488 70.855 288.392 68.7103 290.454 66.4862C292.674 64.262 295.133 62.2762 297.829 60.5286C300.525 58.7811 303.539 57.3513 306.87 56.2392C310.201 54.9682 314.007 54.3328 318.29 54.3328C326.538 54.3328 333.675 56.2392 339.703 60.052C345.888 63.706 351.043 68.5514 355.167 74.5884C359.291 80.4665 362.622 87.2184 365.16 94.8441C367.856 102.311 369.918 109.936 371.346 117.721C372.773 125.347 373.725 132.734 374.201 139.883C374.677 147.032 374.915 153.149 374.915 158.232C374.915 162.839 374.597 165.62 373.963 166.573C373.487 167.367 372.535 167.844 371.108 168.003C370.791 155.77 369.998 143.299 368.729 130.589C367.46 117.88 364.446 105.568 359.688 93.6525C363.97 106.203 366.667 118.595 367.777 130.828C369.046 142.902 369.68 155.055 369.68 167.288C368.729 166.811 367.856 166.573 367.063 166.573C366.429 166.573 365.874 166.811 365.398 167.288C365.398 168.559 365.477 169.909 365.636 171.339C365.794 172.61 365.874 173.881 365.874 175.152C366.032 176.423 366.112 177.614 366.112 178.726C365.16 182.38 364.208 185.002 363.257 186.59C362.305 188.179 361.432 188.973 360.639 188.973C359.688 188.973 358.895 188.576 358.26 187.782C357.626 186.828 356.991 185.716 356.357 184.445C355.881 183.175 355.326 181.824 354.691 180.394C354.216 178.806 353.502 177.296 352.55 175.867C352.867 173.166 353.105 171.021 353.264 169.432C353.423 167.685 353.502 166.255 353.502 165.143C353.502 160.854 353.423 155.69 353.264 149.653C353.105 143.616 352.629 137.341 351.836 130.828C351.202 124.155 350.092 117.562 348.506 111.049C347.078 104.376 345.016 98.498 342.32 93.4142C339.782 88.1716 336.53 83.9616 332.565 80.7843C328.6 77.448 323.841 75.7799 318.29 75.7799C314.483 75.7799 311.073 77.0509 308.059 79.5927C305.204 82.1346 302.667 85.3914 300.446 89.3631C298.384 93.3348 296.56 97.7037 294.974 102.47C293.388 107.077 292.119 111.525 291.167 115.815C292.595 111.366 294.022 106.839 295.45 102.231C297.036 97.6242 298.86 93.4142 300.922 89.6014C303.142 85.7886 305.68 82.6907 308.535 80.3077C311.39 77.7658 314.721 76.4948 318.528 76.4948C323.445 76.4948 327.648 77.8452 331.138 80.546C334.786 83.2467 337.799 86.7418 340.178 91.0312C342.716 95.3207 344.699 100.246 346.126 105.806C347.713 111.207 348.902 116.768 349.695 122.487C350.488 128.047 350.964 133.528 351.123 138.93C351.44 144.172 351.599 148.7 351.599 152.513C351.599 155.532 351.519 158.55 351.361 161.569C351.361 164.587 351.281 167.685 351.123 170.862C349.695 164.825 348.585 158.55 347.792 152.036C347.157 145.364 346.444 138.85 345.651 132.496C344.858 125.982 343.827 119.786 342.558 113.908C341.447 107.871 339.782 102.311 337.561 97.2271L339.227 94.8441C337.641 91.1901 335.817 88.4099 333.755 86.5035C331.851 84.4382 329.948 82.929 328.045 81.9758C326.141 81.0226 324.397 80.4665 322.81 80.3077C321.224 80.1488 320.193 80.0694 319.717 80.0694C315.752 80.0694 312.183 81.4992 309.011 84.3588C305.998 87.2184 303.301 91.1107 300.922 96.0356C298.701 100.802 296.719 106.362 294.974 112.717C293.229 119.071 291.722 125.744 290.454 132.734C289.185 139.724 288.074 146.794 287.123 153.943C286.171 160.933 285.378 167.526 284.743 173.722H286.885C287.678 168.32 288.471 162.363 289.264 155.849C290.216 149.336 291.167 142.743 292.119 136.07C293.229 129.239 294.498 122.646 295.926 116.291C297.353 109.936 299.019 104.217 300.922 99.1335C302.984 94.0497 305.363 89.9192 308.059 86.7418C310.597 83.7233 313.69 81.9758 317.338 81.4992C313.849 82.2935 310.915 84.5176 308.535 88.1716C305.998 91.9844 303.777 96.671 301.874 102.231C299.97 107.792 298.226 113.908 296.639 120.581C295.212 127.094 293.864 133.369 292.595 139.406L287.836 174.198C287.202 176.423 286.726 178.409 286.409 180.156L285.457 185.16C285.14 186.749 284.823 188.497 284.506 190.403C284.188 192.151 283.792 194.216 283.316 196.599L282.602 199.458H281.175L257.145 191.356C256.352 191.197 255.717 190.959 255.242 190.641C254.924 190.324 254.528 189.926 254.052 189.45ZM295.45 67.2011C292.278 69.9018 289.74 72.8409 287.836 76.0182C286.092 79.0367 284.426 82.1346 282.84 85.312V85.5503C285.061 80.9431 288.154 76.2565 292.119 71.4905C295.926 67.0422 301.001 63.706 307.346 61.4818C305.284 62.1173 303.301 62.7528 301.398 63.3882C299.177 64.1826 297.195 65.4535 295.45 67.2011ZM324 59.3371C323.207 59.1782 322.097 59.0988 320.669 59.0988C325.745 60.3697 330.503 61.7996 334.944 63.3882C339.385 64.818 343.589 67.7571 347.554 72.2054C344.858 68.5514 341.289 65.6918 336.848 63.6265C332.565 61.5613 328.283 60.1314 324 59.3371ZM330.424 86.5035C329.155 85.5503 327.648 84.8354 325.903 84.3588C324.317 83.7233 322.335 82.929 319.955 81.9758L319.717 81.4992C322.414 81.658 324.793 82.2935 326.855 83.4056C328.917 84.3588 330.9 86.1063 332.803 88.6482L330.424 86.5035ZM348.03 72.682C350.25 75.3828 352.312 78.4807 354.216 81.9758C356.119 85.4709 357.784 88.5688 359.212 91.2695C357.626 87.6156 356.119 84.2793 354.691 81.2609C353.264 78.2424 351.043 75.3828 348.03 72.682Z" fill="#5DD35D"/>
<path d="M487.019 85.5503C485.591 85.5503 483.608 85.7886 481.071 86.2652C478.691 86.7418 476.233 87.2978 473.695 87.9333C471.316 88.5688 469.095 89.2042 467.033 89.8397C465.13 90.4752 463.941 90.9518 463.465 91.2695C467.589 90.6341 471.395 89.9192 474.885 89.1248C478.374 88.1716 482.181 87.695 486.305 87.695C485.512 89.1248 484.481 90.2369 483.212 91.0312C481.943 91.8256 480.515 92.461 478.929 92.9376C477.502 93.2554 475.916 93.5731 474.171 93.8908C472.426 94.0497 470.602 94.3674 468.699 94.8441L467.033 92.6993C464.02 93.8114 461.72 94.5263 460.134 94.8441C458.548 95.0029 456.882 95.0824 455.138 95.0824C453.234 95.0824 451.252 95.0824 449.19 95.0824C447.286 94.9235 445.145 94.8441 442.766 94.8441C442.766 95.6384 442.686 96.2739 442.528 96.7505C446.176 96.7505 449.269 96.7505 451.807 96.7505C454.344 96.5916 457.437 96.2739 461.085 95.7973C457.596 96.4327 454.503 96.9093 451.807 97.2271C449.269 97.5448 446.176 97.7037 442.528 97.7037C441.893 101.358 441.338 104.932 440.862 108.427C440.387 111.922 440.149 115.338 440.149 118.674C440.149 120.581 440.228 122.805 440.387 125.347C440.545 127.889 440.704 130.51 440.862 133.211C441.18 135.753 441.418 138.215 441.576 140.598C441.735 142.822 441.814 144.49 441.814 145.602V159.9C442.607 163.078 444.907 165.461 448.714 167.049C452.52 168.638 457.993 169.432 465.13 169.432H472.743C475.44 169.432 477.264 169.75 478.216 170.386C479.326 170.862 479.881 171.577 479.881 172.53C479.881 173.325 479.247 173.801 477.978 173.96C476.709 173.96 475.44 173.96 474.171 173.96C469.571 173.96 464.734 173.642 459.658 173.007C454.9 172.372 450.221 171.657 445.621 170.862C450.221 171.974 455.058 173.007 460.134 173.96C465.368 174.755 470.444 175.152 475.361 175.152H477.502C478.136 175.152 478.85 175.072 479.643 174.913C479.643 175.708 479.643 176.423 479.643 177.058C479.802 177.694 480.04 178.409 480.357 179.203L482.26 178.726C482.736 178.567 483.291 178.488 483.926 178.488C484.56 178.329 485.036 178.091 485.353 177.773C490.429 178.25 492.967 179.997 492.967 183.016C492.967 184.763 492.491 186.193 491.539 187.305C490.587 188.417 489.398 189.291 487.97 189.926C486.543 190.562 484.957 191.038 483.212 191.356C481.467 191.515 479.802 191.595 478.216 191.595C472.664 191.595 467.192 191.277 461.799 190.641C456.565 189.847 451.41 189.053 446.335 188.258C450.776 189.847 456.406 191.118 463.227 192.071C470.047 193.024 476.947 193.501 483.926 193.501C482.181 194.613 480.119 195.487 477.74 196.122C475.361 196.758 472.902 197.075 470.364 197.075L453.234 194.931C451.014 194.613 449.269 194.295 448 193.978C446.89 193.66 445.779 193.342 444.669 193.024C443.559 192.548 442.29 192.071 440.862 191.595C439.594 191.118 437.77 190.562 435.39 189.926V187.305C431.266 186.193 427.936 184.287 425.398 181.586C422.86 178.885 420.877 175.946 419.45 172.769C418.022 169.591 417.071 166.414 416.595 163.237C416.119 159.9 415.881 156.961 415.881 154.419C415.881 151.719 415.881 149.256 415.881 147.032C416.04 144.649 416.119 142.266 416.119 139.883C416.119 138.136 416.04 135.911 415.881 133.211C415.881 130.51 415.802 127.65 415.643 124.632C415.485 121.613 415.326 118.515 415.167 115.338C415.167 112.161 415.167 109.142 415.167 106.283C415.167 104.535 415.167 102.867 415.167 101.278C415.326 99.6895 415.485 98.2597 415.643 96.9888H413.264C413.105 98.1008 413.026 99.3718 413.026 100.802V105.091C413.026 109.698 413.105 114.305 413.264 118.913C413.423 123.361 413.502 127.491 413.502 131.304C413.66 135.117 413.819 138.453 413.978 141.313C414.136 144.014 414.216 145.999 414.216 147.27V158.709C413.74 154.419 413.264 148.303 412.788 140.36C412.312 131.145 412.074 120.978 412.074 109.857V105.568C412.074 103.82 412.074 102.152 412.074 100.563C412.233 98.9746 412.471 97.7831 412.788 96.9888L404.699 96.5122C402.954 95.4001 401.209 94.5263 399.465 93.8908C397.72 93.2554 396.134 92.9376 394.706 92.9376V88.1716C394.706 87.2184 394.786 86.4241 394.944 85.7886C395.261 84.9943 396.055 84.5971 397.323 84.5971C397.641 84.5971 398.434 84.756 399.703 85.0737V82.2141C397.958 81.2609 396.53 79.9899 395.42 78.4012C394.31 76.6537 393.755 74.9061 393.755 73.1586C393.755 69.028 396.689 66.9628 402.558 66.9628C404.778 66.9628 407.078 67.1216 409.457 67.4394C411.836 67.7571 414.295 67.9954 416.833 68.1543C417.467 64.6592 418.022 61.5613 418.498 58.8605C418.974 56.0009 419.45 53.3001 419.926 50.7582C420.401 48.0575 420.957 45.4362 421.591 42.8943C422.226 40.1935 423.019 37.4134 423.97 34.5537C425.398 31.3764 426.508 27.9607 427.301 24.3068C428.094 20.4939 428.649 16.7606 428.967 13.1066L433.963 13.3449C434.756 13.3449 435.39 13.5832 435.866 14.0598C436.501 14.5364 436.818 15.6485 436.818 17.396C436.818 18.8258 436.58 20.7322 436.104 23.1153L438.959 23.8302C440.228 19.5407 441.735 16.0456 443.48 13.3449C445.383 10.6441 447.207 9.29376 448.952 9.29376C451.648 9.29376 453.313 12.7094 453.948 19.5407V23.8302C453.948 27.9607 453.631 31.853 452.996 35.5069C452.52 39.002 451.886 42.4971 451.093 45.9922C450.3 49.4873 449.507 53.0618 448.714 56.7158C447.921 60.3697 447.207 64.3414 446.572 68.6309C450.062 69.1075 453.472 69.3458 456.803 69.3458C458.389 69.3458 459.975 69.3458 461.561 69.3458C463.147 69.1869 464.734 69.1075 466.32 69.1075C467.906 69.1075 469.571 68.472 471.316 67.2011C473.061 65.9301 474.647 65.2946 476.074 65.2946C477.343 65.2946 478.295 65.6918 478.929 66.4862C479.564 67.2805 479.881 68.1543 479.881 69.1075C477.026 69.9018 474.171 70.7756 471.316 71.7288C468.62 72.5231 466.002 73.3175 463.465 74.1118C466.002 73.7941 468.699 73.238 471.554 72.4437C474.409 71.4905 477.423 70.6167 480.595 69.8224C480.595 70.6167 480.595 71.3316 480.595 71.9671C480.753 72.6026 480.991 73.3175 481.309 74.1118C481.626 74.1118 482.022 74.0324 482.498 73.8735C483.45 73.5558 484.005 73.3969 484.164 73.3969C485.75 74.1912 486.781 75.2239 487.257 76.4948C487.732 77.6069 487.97 78.8778 487.97 80.3077C487.97 81.4197 487.812 82.4524 487.494 83.4056C487.177 84.1999 487.019 84.9148 487.019 85.5503ZM423.97 173.484C421.75 169.194 420.56 164.984 420.401 160.854C420.243 156.723 420.005 152.831 419.688 149.177L417.546 112.955L416.833 117.244C416.833 127.889 417.15 137.579 417.784 146.317C418.577 154.896 419.688 161.569 421.115 166.335C421.115 167.764 421.036 168.718 420.877 169.194C420.877 169.671 420.877 170.068 420.877 170.386C420.877 170.703 421.036 171.101 421.353 171.577C421.829 172.054 422.701 172.689 423.97 173.484ZM437.532 160.615C437.214 159.344 437.056 157.994 437.056 156.564V144.887C436.897 146.476 436.739 148.065 436.58 149.653C436.421 151.083 436.342 152.592 436.342 154.181C436.342 158.312 436.58 161.489 437.056 163.713C437.532 165.62 438.483 167.208 439.911 168.479C439.118 167.526 438.563 166.493 438.245 165.381C438.087 164.11 437.849 162.522 437.532 160.615Z" fill="#5D8FD3"/>
<path d="M191.964 265.363C199.901 265.363 207.837 265.363 215.774 265.363C223.71 265.203 231.647 265.123 239.583 265.123C263.393 265.123 286.706 265.283 309.524 265.602C333.333 265.922 357.143 266.322 380.952 266.801C348.214 266.322 314.98 266.082 281.25 266.082C248.512 266.082 215.774 266.242 183.036 266.561C150.298 266.721 116.567 266.801 81.8452 266.801H63.9881C56.0516 266.002 48.6111 265.522 41.6667 265.363C35.7143 265.043 30.2579 264.723 25.2976 264.403C20.3373 264.084 16.369 263.524 13.3929 262.725C11.4087 261.926 10.4167 260.487 10.4167 258.409C10.4167 257.61 11.4087 256.971 13.3929 256.491C15.377 255.852 18.8492 255.532 23.8095 255.532L32.7381 253.134C21.8254 252.175 13.3929 250.897 7.44047 249.298C2.48016 247.54 0 245.781 0 244.023C0 241.306 6.94444 239.468 20.8333 238.508C34.7222 237.549 50.0992 237.07 66.9643 237.07C77.877 237.07 88.2936 237.15 98.2143 237.31C108.135 237.469 118.552 237.549 129.464 237.549C145.337 237.549 160.714 237.39 175.595 237.07C190.476 236.59 205.357 236.351 220.238 236.351C229.167 236.351 241.567 236.43 257.44 236.59C273.313 236.75 290.675 237.07 309.524 237.549C328.373 237.869 346.726 238.349 364.583 238.988C383.433 239.468 399.802 240.107 413.69 240.906C420.635 240.906 427.579 240.826 434.524 240.666C442.46 240.507 449.405 240.427 455.357 240.427C465.278 240.427 471.23 240.906 473.214 241.865C475.198 242.664 476.19 243.544 476.19 244.503V245.222C446.429 245.222 416.667 245.142 386.905 244.982C361.111 244.663 335.813 244.103 311.012 243.304C334.821 244.263 360.119 244.822 386.905 244.982C417.659 245.302 447.421 245.861 476.19 246.661C474.206 247.939 473.214 248.898 473.214 249.538C473.214 249.698 473.214 249.857 473.214 250.017C474.206 250.177 474.702 250.337 474.702 250.497L488.095 250.976C496.032 252.415 500 254.173 500 256.251C500 258.809 495.04 261.286 485.119 263.684L479.167 263.205C454.365 261.926 425.099 261.047 391.369 260.567C357.639 260.088 329.861 259.848 308.036 259.848C300.099 259.848 292.163 259.928 284.226 260.088C276.29 260.088 268.353 260.088 260.417 260.088C297.123 260.727 333.829 261.207 370.536 261.526C408.234 261.846 444.444 263.125 479.167 265.363C470.238 267.121 461.806 268 453.869 268C441.964 267.68 431.548 267.441 422.619 267.281C414.683 267.121 405.258 266.961 394.345 266.801L383.929 264.164C378.968 264.324 373.512 264.483 367.559 264.643C362.599 264.643 357.639 264.643 352.679 264.643C332.837 264.643 313.492 264.403 294.643 263.924C276.786 263.285 258.433 262.965 239.583 262.965C224.702 262.965 208.333 263.364 190.476 264.164C191.468 264.324 191.964 264.563 191.964 264.883V265.363ZM303.571 242.824C305.556 242.984 308.036 243.144 311.012 243.304C309.028 243.144 306.548 242.984 303.571 242.824Z" fill="#A15DD3"/>
</svg>
